<svg width="12" height="16" viewBox="0 0 12 16" fill="none" xmlns="http://www.w3.org/2000/svg">
<path fill-rule="evenodd" clip-rule="evenodd" d="M5.1017 0.465206C3.09627 0.788784 1.46056 2.16429 0.825932 4.06081C0.373298 5.41346 0.479541 6.85612 1.1261 8.1363C1.39272 8.6642 1.65796 9.01993 2.31597 9.73197C2.62595 10.0674 2.99177 10.4713 3.12889 10.6295L3.37824 10.9172L3.22471 10.9584C1.31469 11.4705 0.332319 12.3469 0.483208 13.4041C0.643875 14.5301 2.17409 15.3814 4.58293 15.6851C5.21222 15.7645 6.62217 15.7646 7.25268 15.6853C9.45155 15.4089 10.9375 14.6659 11.2911 13.6662C11.385 13.4008 11.3853 13.0009 11.2918 12.7392C11.0491 12.0599 10.2956 11.4882 9.16653 11.1268C8.94539 11.056 8.69566 10.9799 8.61158 10.9577L8.45869 10.9172L8.72071 10.6136C8.86482 10.4465 9.20345 10.0726 9.47326 9.78248C10.097 9.11183 10.1626 9.03316 10.4119 8.65662C11.4629 7.06897 11.5754 5.05983 10.7094 3.34161C9.97832 1.89112 8.62473 0.85981 6.99535 0.511875C6.57151 0.421383 5.53208 0.395747 5.1017 0.465206ZM6.74533 1.51793C8.21201 1.80513 9.44495 2.83922 9.9678 4.22063C10.3972 5.35528 10.3327 6.60868 9.78964 7.68084C9.55052 8.15295 9.38667 8.36517 8.6484 9.15917C8.06891 9.78245 7.88048 10.003 6.75598 11.3739C6.30588 11.9226 5.92881 12.3716 5.918 12.3716C5.90722 12.3716 5.45777 11.8358 4.91923 11.1809C3.90726 9.95039 3.71276 9.72497 3.00907 8.96754C2.78031 8.72132 2.51121 8.41021 2.41102 8.27615C2.05668 7.80201 1.77575 7.15745 1.65034 6.53072C1.57101 6.13445 1.57253 5.32859 1.65333 4.93984C1.84166 4.03348 2.24598 3.29881 2.90756 2.66086C3.60095 1.99228 4.44022 1.59094 5.39573 1.47107C5.70664 1.43207 6.43622 1.45742 6.74533 1.51793ZM5.5479 3.07131C3.47058 3.39141 2.50292 5.74624 3.76911 7.40009C4.08736 7.81579 4.51844 8.11949 5.05882 8.30875C5.38501 8.42302 5.39039 8.42373 5.91781 8.42334C6.43332 8.42296 6.45732 8.41995 6.75411 8.31824C7.99261 7.89385 8.74333 6.74741 8.61582 5.47502C8.4824 4.14331 7.39424 3.12348 6.03482 3.05613C5.87316 3.04814 5.65405 3.05495 5.5479 3.07131ZM6.25554 4.10911C7.0391 4.27331 7.5964 4.94262 7.59929 5.72297C7.60216 6.4962 7.11385 7.14907 6.37031 7.36611C6.14345 7.43231 5.69216 7.43231 5.4653 7.36611C4.89375 7.19926 4.45935 6.76364 4.2928 6.19026C4.25954 6.07577 4.23854 5.89315 4.23908 5.7231C4.24156 4.94652 4.79169 4.27708 5.56398 4.1109C5.83704 4.05212 5.98188 4.05176 6.25554 4.10911ZM4.85142 12.7105C5.24677 13.1936 5.60583 13.612 5.64935 13.6404C5.76997 13.7189 6.00951 13.7284 6.14206 13.6599C6.21569 13.6219 6.50142 13.3025 6.98004 12.7232L7.70631 11.8442L7.8333 11.8538C7.90316 11.8591 8.10506 11.899 8.28197 11.9426C9.18457 12.1648 9.81505 12.4629 10.1532 12.8276C10.4182 13.1132 10.4006 13.3309 10.0879 13.6364C9.53679 14.1749 8.2757 14.5812 6.7765 14.7034C4.67313 14.8749 2.42462 14.378 1.6824 13.5778C1.43994 13.3165 1.43997 13.0897 1.68244 12.8265C1.94771 12.5386 2.47249 12.2583 3.10506 12.0665C3.39445 11.9788 4.00508 11.8328 4.08437 11.8324C4.1109 11.8323 4.45607 12.2274 4.85142 12.7105Z" fill="black"/>
</svg>
