<svg width="15" height="18" viewBox="0 0 15 18" fill="none" xmlns="http://www.w3.org/2000/svg">
<path fill-rule="evenodd" clip-rule="evenodd" d="M7.06831 0.570777C6.56006 0.953565 5.34537 2.90169 4.95823 3.95486C4.59306 4.94839 4.71517 5.82918 5.31663 6.5389C5.59489 6.86728 6.21433 7.26651 6.53447 7.32381L6.74848 7.36212V8.51922V9.67639L6.2682 9.47726C5.60503 9.20233 4.41662 9.05465 2.82939 9.0499C0.667813 9.04344 0.216656 9.15397 0.216656 9.69008C0.216656 10.3197 2.3571 12.7955 3.4264 13.4028C4.23911 13.8644 5.49322 14.0137 6.34505 13.7503L6.74848 13.6255V15.2692C6.74848 17.0788 6.78921 17.2715 7.19173 17.3661C7.48735 17.4355 7.68192 17.3977 7.88195 17.2318C8.05247 17.0904 8.05485 17.0646 8.05485 15.3464C8.05485 14.3883 8.06353 13.6044 8.07406 13.6044C8.08459 13.6044 8.27517 13.6663 8.49755 13.742C9.33186 14.0258 10.6001 13.8781 11.4322 13.4002C12.6196 12.7182 14.7621 10.1269 14.5967 9.57301C14.4864 9.20405 14.2483 9.12412 13.0811 9.06421C11.2051 8.96784 9.34969 9.14537 8.4715 9.50526L8.05485 9.67598V8.52225V7.36845L8.45391 7.20192C9.30281 6.84775 9.92718 6.04757 10.0734 5.12634C10.1424 4.69203 10.1314 4.55336 9.98766 4.04813C9.78655 3.34123 9.124 2.08769 8.54143 1.31207C7.84821 0.389047 7.52531 0.226577 7.06831 0.570777ZM8.18042 3.11465C8.7307 4.12662 8.89046 4.68068 8.75952 5.12338C8.54712 5.84149 8.02519 6.24437 7.3073 6.24437C6.62569 6.24437 6.05688 5.68879 6.05688 5.02302C6.05688 4.55859 6.66157 3.22643 7.27518 2.33903L7.47851 2.04491L7.62375 2.20146C7.70359 2.28758 7.95411 2.6985 8.18042 3.11465ZM5.22288 10.3913C6.43734 10.6611 7.07415 11.509 6.59295 12.2155C6.28396 12.669 5.36274 12.8417 4.55902 12.5965C4.00827 12.4285 2.72818 11.2943 2.09483 10.4129L1.95159 10.2136L3.37022 10.2542C4.16687 10.277 4.97921 10.3371 5.22288 10.3913ZM12.5721 10.6542C12.0507 11.32 11.0367 12.2455 10.5907 12.4627C10.1186 12.6928 9.38619 12.7736 8.94771 12.6441C8.00183 12.3646 7.81463 11.5458 8.54689 10.8904C9.08626 10.4076 9.83758 10.2582 11.8037 10.2426L12.9014 10.2339L12.5721 10.6542Z" fill="black"/>
</svg>
